<svg id="Layer_5" enable-background="new 0 0 62 62" height="512" viewBox="0 0 62 62" width="512" xmlns="http://www.w3.org/2000/svg"><g><g><g><path d="m22 1v4.28c-.97-.18-1.98-.28-3-.28s-2.03.1-3 .28v-4.28z" fill="#aab2bd"/></g><g><path d="m33 23c.01 1.38.32 2.72.86 3.94-2.36 5.89-8.12 10.06-14.86 10.06-8.84 0-16-7.16-16-16 0-7.82 5.6-14.32 13-15.72.97-.18 1.98-.28 3-.28s2.03.1 3 .28c2.91.55 5.54 1.89 7.66 3.79-.43 1.23-.66 2.55-.66 3.93.03.59.11 1.17.24 1.73-.5-.81-1.08-1.55-1.75-2.22-2.17-2.17-5.18-3.51-8.49-3.51-3.32 0-6.32 1.34-8.49 3.51s-3.51 5.17-3.51 8.49 1.34 6.32 3.51 8.49 5.17 3.51 8.49 3.51 6.32-1.35 8.49-3.51c1.77-1.79 2.99-4.11 3.38-6.71.35.14.73.22 1.13.22z" fill="#ccd1d9"/></g><g><path d="m30.87 22.78c-.39 2.6-1.61 4.92-3.38 6.71-2.17 2.16-5.17 3.51-8.49 3.51s-6.32-1.34-8.49-3.51-3.51-5.17-3.51-8.49 1.34-6.32 3.51-8.49 5.17-3.51 8.49-3.51c3.31 0 6.32 1.34 8.49 3.51.67.67 1.25 1.41 1.75 2.22.21.99.56 1.93 1.03 2.82-.14.1-.27.21-.39.33-.54.54-.88 1.29-.88 2.12 0 1.26.77 2.34 1.87 2.78z" fill="#69d6f4"/></g><g><circle cx="19" cy="21" fill="#ef7385" r="2"/></g><g><path d="m31 45h24v16h-24z" fill="#d3a06c"/></g><g><path d="m49.51 35.44-1.51 7.56-5-4-5 4-1.51-7.56c-4.03.97-11.49 4.07-11.49 13.56h2 4v-4h8 8 1 7v4h4 2c0-9.49-7.46-12.59-11.49-13.56z" fill="#e6e9ed"/></g><g><path d="m49.51 35.44-1.51 7.56-5-4 4-4s1.02.07 2.51.44z" fill="#ccd1d9"/></g><g><path d="m43 39-5 4-1.51-7.56c1.49-.37 2.51-.44 2.51-.44z" fill="#ccd1d9"/></g><g><path d="m39 45h8v6h-4-4z" fill="#b27946"/></g><g><path d="m30 53c-1.66 0-3 1.34-3 3v-7h4v4z" fill="#f0d0b4"/></g><g><path d="m33 57v2c0 1.1-.9 2-2 2h-1c-1.66 0-3-1.34-3-3v-1-1c0-1.66 1.34-3 3-3h1c1.1 0 2 .9 2 2z" fill="#f0d0b4"/></g><g><path d="m59 49v7c0-1.66-1.34-3-3-3h-1v-4z" fill="#f0d0b4"/></g><g><path d="m59 57v1c0 1.66-1.34 3-3 3h-1c-1.1 0-2-.9-2-2v-2-2c0-1.1.9-2 2-2h1c1.66 0 3 1.34 3 3z" fill="#f0d0b4"/></g><g><path d="m55.99 17.76c.62.54 1.01 1.35 1.01 2.24 0 .83-.34 1.58-.88 2.12s-1.29.88-2.12.88h-1c0-.03 0-.06 0-.09v-5.91h1c.77 0 1.46.29 1.99.76z" fill="#f0d0b4"/></g><g><path d="m53 13v4 5.91.09c-.03 3.69-2.14 7.06-5.45 8.72-.34.17-.55.52-.55.9v2.38l-4 4-4-4v-2.38c0-.38-.21-.73-.55-.9-1.67-.84-3.03-2.1-3.98-3.63-.23-.37-.43-.75-.61-1.15-.54-1.22-.85-2.56-.86-3.94 0-.03 0-.06 0-.09v-5.91-4c.61 1.23 1.87 2 3.24 2h13.52c1.37 0 2.63-.77 3.24-2z" fill="#f0d0b4"/></g><g><path d="m33 17v5.91.09h-1c-.4 0-.78-.08-1.13-.22-1.1-.44-1.87-1.52-1.87-2.78 0-.83.34-1.58.88-2.12.12-.12.25-.23.39-.33.49-.34 1.08-.55 1.73-.55z" fill="#f0d0b4"/></g><g><path d="m57 13v.14c0 1.61-.35 3.18-1.01 4.62-.53-.47-1.22-.76-1.99-.76h-1v-4z" fill="#b27946"/></g><g><path d="m33 13v4h-1c-.65 0-1.24.21-1.73.55-.47-.89-.82-1.83-1.03-2.82-.13-.56-.21-1.14-.24-1.73z" fill="#b27946"/></g><g><path d="m57 13h-4c-1.25-1.25-2.73-2.24-4.33-2.92-1.11-7.65-4.67-9.08-4.67-9.08h1c3.32 0 6.32 1.34 8.49 3.51s3.51 5.17 3.51 8.49z" fill="#ffeaa7"/></g><g><path d="m41 1h1s-3.56 1.42-4.67 9.08c-1.6.68-3.08 1.67-4.33 2.92h-4c0-1.38.23-2.7.66-3.93 1.62-4.7 6.09-8.07 11.34-8.07z" fill="#ffeaa7"/></g><g><path d="m44 1s3.56 1.43 4.67 9.08c-1.67-.71-3.48-1.08-5.33-1.08h-.68c-1.82 0-3.59.36-5.23 1.04-.03.01-.07.03-.1.04 1.11-7.66 4.67-9.08 4.67-9.08z" fill="#fcd770"/></g><g><path d="m53 13c-.61 1.23-1.87 2-3.24 2h-13.52c-1.37 0-2.63-.77-3.24-2 1.25-1.25 2.73-2.24 4.33-2.92.03-.01.07-.03.1-.04 1.64-.68 3.41-1.04 5.23-1.04h.68c1.85 0 3.66.37 5.33 1.08 1.6.68 3.08 1.67 4.33 2.92z" fill="#ffc729"/></g></g><g><circle cx="48" cy="19" r="1"/><circle cx="38" cy="19" r="1"/><path d="m42.447 23.895 1.105-.553c.478-.239.834-.649 1.003-1.156s.131-1.05-.108-1.527l-.447-.895v-1.764h-2v2c0 .155.036.309.105.447l.553 1.105-1.105.553z"/><path d="m43 29c2.284 0 4.275-1.543 4.843-3.751l-1.938-.498c-.34 1.324-1.535 2.249-2.905 2.249s-2.564-.925-2.905-2.249l-1.938.498c.57 2.209 2.561 3.751 4.843 3.751z"/><path d="m62 49c0-11.737-10.735-14.354-14-14.877l.001-1.506c3.371-1.685 5.558-4.926 5.924-8.617h.075c2.206 0 4-1.794 4-4 0-.924-.327-1.765-.855-2.442.556-1.411.855-2.89.855-4.417v-.141c0-7.168-5.832-13-13-13h-4c-5.177 0-9.644 3.05-11.733 7.46-1.87-1.42-4.004-2.419-6.267-2.967v-2.493h2v-2h-12v2h2v2.495c-7.447 1.806-13 8.511-13 16.505 0 9.374 7.626 17 17 17 6.331 0 11.999-3.445 14.946-8.913 1.017 1.465 2.383 2.696 4.054 3.531v1.505c-3.264.523-14 3.14-14 14.877v1h2v6 1 1c0 2.206 1.794 4 4 4h1 24 1c2.206 0 4-1.794 4-4v-1-1-6h2zm-2.03-1h-3.97v-4h-7.18l1.469-7.345c3.715 1.092 9.224 3.95 9.681 11.345zm-7.97 7v4c0 .352.072.686.184 1h-18.368c.112-.314.184-.648.184-1v-4c0-1.302-.839-2.402-2-2.816v-6.184h6v6h10v-6h6v6.184c-1.161.414-2 1.514-2 2.816zm-9-14.719 4.649 3.719h-9.297zm-1 7.719v2h-2v-4h6v4h-2v-2zm6.342-11.809-1 5.001-2.845-2.275 2.875-2.875c.242.029.574.077.97.149zm5.658-20.191v-2h1.954c-.066.783-.216 1.551-.462 2.295-.462-.187-.964-.295-1.492-.295zm.001 6v-4c1.102 0 2 .898 2 2-.001 1.102-.898 1.999-2 2zm1.948-10h-2.565c-1.143-1.078-2.429-1.949-3.816-2.602-.598-3.589-1.736-5.852-2.801-7.243 4.903.798 8.728 4.836 9.182 9.845zm-13.703-10h1.507c.552.335 2.585 1.873 3.622 6.569-1.295-.369-2.648-.569-4.032-.569h-.686c-1.385 0-2.737.2-4.033.569 1.038-4.696 3.07-6.234 3.622-6.569zm.411 8h.686c3.107 0 6.044 1.112 8.355 3.148-.488.538-1.182.852-1.934.852h-13.528c-.752 0-1.446-.314-1.935-.852 2.312-2.036 5.249-3.148 8.356-3.148zm-3.424-7.845c-1.065 1.39-2.203 3.653-2.801 7.243-1.387.652-2.673 1.523-3.816 2.602h-2.565c.454-5.009 4.279-9.047 9.182-9.845zm-9.233 17.845c0-1.103.897-2 2-2v4c-1.103 0-2-.897-2-2zm-2.56 8.026-1.369-1.369-1.414 1.414 1.365 1.365c-1.679 1.397-3.764 2.309-6.022 2.518v-1.954h-2v1.949c-2.283-.207-4.366-1.111-6.034-2.501l1.377-1.377-1.414-1.414-1.377 1.377c-1.391-1.668-2.294-3.751-2.501-6.034h1.949v-2h-1.949c.207-2.283 1.111-4.366 2.501-6.034l1.377 1.377 1.414-1.414-1.377-1.377c1.667-1.391 3.751-2.294 6.034-2.501v1.949h2v-1.936c2.251.202 4.334 1.077 6.029 2.494l-1.371 1.371 1.414 1.414 1.377-1.377c.317.382.613.785.881 1.215.175.729.42 1.442.728 2.132-.651.711-1.058 1.649-1.058 2.687 0 1.371.694 2.581 1.748 3.302-.379 1.775-1.186 3.386-2.308 4.724zm4.56-14.026v2c-.438 0-.853.088-1.248.219-.299-.725-.517-1.474-.64-2.219zm-15-12h4v2.132c-.661-.078-1.327-.132-2-.132-.678 0-1.343.051-2 .128zm2 34c-8.271 0-15-6.729-15-15s6.729-15 15-15c3.488 0 6.838 1.221 9.519 3.427-.21.731-.367 1.484-.447 2.262-2.396-2.345-5.613-3.689-9.072-3.689-7.168 0-13 5.832-13 13s5.832 13 13 13c6.036 0 11.295-4.246 12.654-10.035.116.01.228.035.346.035h.076c.101 1.014.338 1.991.703 2.914-2.372 5.529-7.734 9.086-13.779 9.086zm15-13.088v-7.496c.671.371 1.433.584 2.236.584h13.527c.804 0 1.566-.213 2.237-.584l.001 7.494c0 3.375-1.876 6.409-4.895 7.919-.685.341-1.108 1.027-1.106 1.789v1.968l-3 3-3-3v-1.971c-.002-.762-.426-1.446-1.105-1.786-3.019-1.509-4.894-4.543-4.895-7.917zm4.629 13.131 2.874 2.874-2.845 2.275-.999-4.998c.396-.073.728-.121.97-.151zm-2.916.62 1.467 7.337h-7.18v4h-3.97c.458-7.375 5.968-10.239 9.683-11.337zm-5.713 13.337v2c-.732 0-1.409.212-2 .556v-2.556zm0 10c-1.103 0-2-.897-2-2v-1-1c0-1.103.897-2 2-2h1c.552 0 1 .448 1 1v1h-2v2h2v1c0 .552-.448 1-1 1zm28-2c0 1.103-.897 2-2 2h-1c-.552 0-1-.448-1-1v-1h2v-2h-2v-1c0-.552.448-1 1-1h1c1.103 0 2 .897 2 2v1zm0-5.444c-.591-.344-1.268-.556-2-.556v-2h2z"/><path d="m2 48h20v2h-20z"/><path d="m0 52h21v2h-21z"/><path d="m4 56h19v2h-19z"/><path d="m0 44h20v2h-20z"/><path d="m3 40h19v2h-19z"/><path d="m20 18.184v-4.184h-2v4.184c-1.161.414-2 1.514-2 2.816 0 1.654 1.346 3 3 3 1.302 0 2.402-.839 2.816-2h2.184v-2h-2.184c-.302-.847-.969-1.514-1.816-1.816zm-1 3.816c-.552 0-1-.448-1-1s.448-1 1-1 1 .448 1 1-.448 1-1 1z"/></g></g></svg>