<svg id="Capa_1" enable-background="new 0 0 512 512" height="512" viewBox="0 0 512 512" width="512" xmlns="http://www.w3.org/2000/svg"><g><g><g><g><path d="m357.934 276.235v-40.589h-26.773c-1.821-6.523-4.458-12.702-7.803-18.422l19.053-19.053-28.701-28.701-19.175 19.175c-5.692-3.264-11.827-5.836-18.3-7.6v-27.098h-40.589v26.873c-6.574 1.717-12.805 4.276-18.588 7.536l-18.887-18.887-28.701 28.701 18.551 18.551c-3.484 5.859-6.218 12.211-8.092 18.924h-25.982v40.589h25.509c1.767 6.933 4.471 13.487 7.944 19.544l-17.931 17.931 28.701 28.701 17.808-17.808c6.084 3.558 12.682 6.332 19.667 8.156v25.175h40.589v-25.399c6.882-1.876 13.387-4.658 19.378-8.22l18.097 18.097 28.701-28.701-18.433-18.433c3.335-5.917 5.938-12.301 7.656-19.042zm-102.388 11.219c-16.935 0-30.664-13.729-30.664-30.664s13.729-30.664 30.664-30.664 30.664 13.729 30.664 30.664-13.729 30.664-30.664 30.664z" fill="#92a2b5"/></g><g><path d="m340.251 311.551-1.388-1.388c-14.783 8.5-31.916 13.373-50.192 13.373-55.71 0-100.871-45.162-100.871-100.871 0-1.972.069-3.927.181-5.871-3.464 5.839-6.185 12.166-8.051 18.853h-23.022c-1.455 6.819-2.233 13.89-2.233 21.144 0 6.653.651 13.152 1.88 19.445h22.903c1.767 6.933 4.471 13.487 7.944 19.544l-16.258 16.257c7.492 11.422 17.237 21.23 28.607 28.794l16.229-16.229c6.084 3.558 12.682 6.332 19.667 8.156v22.935c6.434 1.287 13.087 1.967 19.899 1.967 7.092 0 14.011-.738 20.69-2.131v-22.996c6.882-1.876 13.387-4.658 19.378-8.22l16.201 16.201c11.323-7.626 21.008-17.496 28.436-28.963z" fill="#72869e"/></g><g><path d="m39.501 242.823-29.671 28.523c2.837 126.789 113.914 234.623 247.171 234.623v-60c-97.269 0-177.239-74.067-186.587-168.879z" fill="#6e91ef"/></g><g><path d="m28.164 255.201 12.052-11.586-.715-.793-29.671 28.524c2.837 126.789 113.914 234.623 247.17 234.623v-16.831c-124.962-9.33-226.13-113.01-228.836-233.937z" fill="#3d6dea"/></g><g><path d="m240.994 473.441 28.523 29.671c126.789-2.837 234.623-113.914 234.623-247.171h-60c0 97.269-74.067 177.239-168.879 186.587z" fill="#c4e5f9"/></g><g><path d="m495.431 255.941c-9.489 124.81-113.094 225.8-233.914 228.504l-15.197-15.809-5.326 4.805 28.523 29.671c126.789-2.837 234.623-113.914 234.623-247.171z" fill="#a4d7f5"/></g><g><path d="m473.441 272.13 29.671-28.523c-2.838-126.789-113.915-234.622-247.171-234.622v60c97.269 0 177.239 74.067 186.587 168.879z" fill="#e08ea2"/></g><g><path d="m458.314 224.766c-.054-2.021-.172-4.042-.403-6.051-10.728-93.361-90.03-165.861-186.265-165.861l-15.646.291-.059 15.839c97.269 0 177.239 74.067 186.587 168.879l16.618 18.137z" fill="#d15573"/></g><g><path d="m271.646 38.5-28.523-29.671c-126.79 2.838-234.623 113.915-234.623 247.171h13.829l15.646-15.646 15.646 15.646h14.879c0-97.269 74.067-177.239 168.879-186.587z" fill="#faef93"/></g><g><path d="m222.942 10.221c-117.84 13.42-214.442 119.656-214.442 245.779h13.829l7.694-7.694c1.983-116.552 86.316-215.312 192.919-238.085z" fill="#f6e23d"/></g><g><g><g><path d="m131.696 86.358-8.819-12.133c3.647-2.651 8.948-6.345 12.888-8.761l7.842 12.787c-3.571 2.19-8.495 5.624-11.911 8.107z" fill="#fff"/></g><g><path d="m155.979 70.933-6.757-13.393c4.617-2.331 8.99-4.734 13.895-6.825l5.878 13.801c-4.279 1.818-8.711 4.246-13.016 6.417z" fill="#fff"/></g></g></g><g><g><g><path d="m47.692 341.953c-1.667-3.933-3.911-9.945-5.457-14.622l14.242-4.709c1.41 4.267 3.524 9.935 5.025 13.478z" fill="#fff"/></g></g></g></g></g><g><path d="m239.08 15.59 22.028 22.027-23.482 23.481c-42.474 3.973-82.451 21.661-114.127 50.803l10.15 11.033c33.435-30.76 76.887-47.7 122.351-47.7v-11.307l26.31-26.31-26.31-26.31v-11.307c-65.562 0-127.924 24.759-175.6 69.717-47.472 44.766-75.847 105.178-79.897 170.107l7.601.515 8.052-8.185c11.478-116.848 106.443-208.418 222.924-216.564z"/><path d="m15.559 272.423 21.531-21.531 24.069 24.069c4.105 42.561 21.968 82.545 51.336 114.184 32.027 34.503 74.914 56.141 121.362 61.373l7.672-7.556v-6.767c-93.249-7.381-166.294-86.533-166.294-180.195h-11.835l-26.31-26.31-26.31 26.31h-10.78c0 135.23 105.636 247.476 240.491 255.538l.424-6.093-10.431-9.77c-116.263-12.226-207.052-107-214.925-223.252z"/><path d="m271.705 496.493-20.814-20.813 24.931-24.93c42.238-4.261 81.897-22.076 113.322-51.246 34.647-32.16 56.321-75.271 61.438-121.943l-7.598-7.092h-6.789c-7.382 93.251-86.534 166.296-180.195 166.296v12.604l-26.31 26.311 26.31 26.309v10.011c60 0 118.336-21.181 164.263-59.641l-9.626-11.494c-39.214 32.839-88.042 52.294-138.932 55.628z"/><path d="m421.183 431.499 10.278 10.914c3.754-3.534 7.447-7.228 10.976-10.977l-10.916-10.276c-3.324 3.531-6.802 7.009-10.338 10.339z"/><path d="m440.777 410.742 11.488 9.632c35.485-42.325 55.981-93.802 59.272-148.866l-4.799-.334-11.144 11.135c-5.117 47.414-23.938 91.601-54.817 128.433z"/><path d="m496.484 240.302-20.806 20.806-24.93-24.931c-4.262-42.237-22.076-81.897-51.246-113.322-32.116-34.599-75.152-56.261-121.75-61.416l-7.285 7.386v6.98c93.25 7.381 166.295 86.532 166.295 180.194h12.604l26.311 26.31 26.313-26.309h10.01c0-65.566-24.763-127.933-69.728-175.61-44.772-47.474-105.191-75.847-170.127-79.889l-.583 8.376 6.915 7.148c117.91 10.906 210.388 106.78 218.007 224.277z"/><path d="m70.124 241.575h5.678c3.167-40.131 20-78.564 47.401-108.218l-11.011-10.174c-27.934 30.231-45.727 68.892-50.579 109.585z"/><path d="m256.003 217.86c-50.288 1.314-50.298 74.965-.001 76.287 50.287-1.314 50.297-74.966.001-76.287zm-.001 61.294c-30.522-.797-30.529-45.501-.001-46.303 30.523.799 30.529 45.501.001 46.303z"/><path d="m365.435 283.782v-55.559h-28.765c-1.154-3.265-2.504-6.458-4.044-9.56l20.399-20.398-39.286-39.286-20.554 20.554c-3.057-1.488-6.198-2.793-9.404-3.907v-29.057h-55.559v28.775c-3.29 1.107-6.519 2.42-9.666 3.927l-20.293-20.293-39.286 39.286 19.868 19.868c-1.648 3.264-3.085 6.635-4.304 10.09h-27.973v55.559h27.378c1.201 3.631 2.651 7.19 4.339 10.651l-19.308 19.308 39.286 39.285 19.153-19.152c3.505 1.744 7.116 3.242 10.806 4.485v27.077h55.559v-27.358c3.611-1.251 7.135-2.744 10.544-4.465l19.414 19.413 39.286-39.285-19.84-19.839c1.577-3.292 2.941-6.674 4.081-10.12h28.169zm-33.611 29.959-18.085 18.084-16.91-16.909c-8.497 5.562-18.127 9.666-28.04 11.913v23.615h-25.575v-23.454c-9.989-2.147-19.728-6.195-28.362-11.753l-16.589 16.588-18.084-18.084 16.675-16.675c-5.453-8.633-9.397-18.347-11.469-28.277h-23.825v-25.575h24.162c2.276-9.749 6.351-19.226 11.819-27.589l-17.362-17.362 18.084-18.085 17.6 17.6c8.369-5.19 17.776-8.993 27.351-11.067v-25.151h25.575v25.313c9.486 2.163 18.785 6.028 27.03 11.225l17.92-17.92 18.085 18.085-17.834 17.832c5.298 8.249 9.267 17.572 11.5 27.118h24.953v25.575h-24.615c-2.044 9.742-5.87 19.302-11.151 27.805z"/></g></g></svg>